# xmcd
#
# Track frame offsets:
#	150
#	19112
#	31528
#	48052
#	59382
#	70556
#	90200
#	103261
#	120646
#	134969
#	148356
#	160110
#	174671
#
# Disc length: 2554 seconds
#
# Revision: 2
# Processed by: cddbd v1.5.2PL0 Copyright (c) Steve Scherf et al.
# Submitted via: EasyCDDAExtractor 8.2.3.1
#
DISCID=ac09f80d
DTITLE=Various Artist - Lady Liberty
DYEAR=1995
DGENRE=Acoustic
TTITLE0=Leeann Atherton - Disappear
TTITLE1=Leeann Atherton - High Livin'
TTITLE2=Leeann Atherton and Toni Price - Drift On
TTITLE3=Leeann Atherton - Mean and Ugly
TTITLE4=Leeann Atherton - Pileup
TTITLE5=Leeann Atherton - Real Life
TTITLE6=Leeann Atherton - Hard Cold Cash
TTITLE7=Leeann Atherton - Smilin' Devil
TTITLE8=Leeann Atherton - Uncle Aubry
TTITLE9=Leeann Atherton - Gettin' Out
TTITLE10=Leeann Atherton - Homers
TTITLE11=Leeann Atherton - Never Thought
TTITLE12=Leeann Atherton - Lady Liberty
EXTD=YEAR: 1998 ID3G:  99
EXTT0=
EXTT1=
EXTT2=
EXTT3=
EXTT4=
EXTT5=
EXTT6=
EXTT7=
EXTT8=
EXTT9=
EXTT10=
EXTT11=
EXTT12=
PLAYORDER=
